<svg width="25" height="25" viewBox="0 0 25 25" fill="none" xmlns="http://www.w3.org/2000/svg">
<path fill-rule="evenodd" clip-rule="evenodd" d="M19.6363 8.72004C19.7254 8.63107 19.7961 8.52542 19.8444 8.40914C19.8926 8.29285 19.9175 8.1682 19.9176 8.04229C19.9176 7.91639 19.8929 7.79171 19.8448 7.67536C19.7967 7.55902 19.7261 7.45329 19.6372 7.36421C19.5482 7.27513 19.4426 7.20444 19.3263 7.15619C19.21 7.10794 19.0853 7.08306 18.9594 7.08299C18.8335 7.08291 18.7088 7.10763 18.5925 7.15574C18.4761 7.20385 18.3704 7.2744 18.2813 7.36337L12.4997 13.145L6.71967 7.36337C6.53977 7.18347 6.29576 7.0824 6.04134 7.0824C5.78692 7.0824 5.54291 7.18347 5.36301 7.36337C5.1831 7.54328 5.08203 7.78728 5.08203 8.04171C5.08203 8.29613 5.1831 8.54013 5.36301 8.72004L11.1447 14.5L5.36301 20.28C5.27393 20.3691 5.20326 20.4749 5.15505 20.5913C5.10684 20.7076 5.08203 20.8324 5.08203 20.9584C5.08203 21.0843 5.10684 21.2091 5.15505 21.3255C5.20326 21.4419 5.27393 21.5476 5.36301 21.6367C5.54291 21.8166 5.78692 21.9177 6.04134 21.9177C6.16732 21.9177 6.29206 21.8929 6.40845 21.8447C6.52484 21.7964 6.63059 21.7258 6.71967 21.6367L12.4997 15.855L18.2813 21.6367C18.4612 21.8164 18.7052 21.9172 18.9594 21.9171C19.2137 21.9169 19.4575 21.8158 19.6372 21.6359C19.8169 21.456 19.9177 21.2121 19.9176 20.9578C19.9174 20.7035 19.8162 20.4597 19.6363 20.28L13.8547 14.5L19.6363 8.72004Z" fill="#86888B"/>
</svg>
